<svg width="298" height="234" viewBox="0 0 298 234" fill="none" xmlns="http://www.w3.org/2000/svg">
<mask id="mask0_187_9000" style="mask-type:alpha" maskUnits="userSpaceOnUse" x="32" y="0" width="235" height="234">
<circle opacity="0.3" cx="149.557" cy="116.798" r="116.798" fill="#D9D9D9"/>
</mask>
<g mask="url(#mask0_187_9000)">
</g>
<g clip-path="url(#clip0_187_9000)">
<path d="M25.9471 185.858H285.661C307.183 173.368 296.106 135.77 278.132 128.149C258.773 119.942 289.512 91.5778 259.699 82.3616C240.231 76.3458 213.848 83.0677 200.963 70.1192C185.823 54.9147 160.669 36.3998 113.827 50.7881C77.6954 61.8842 97.3199 83.2694 38.1987 89.707C7.79902 93.0175 13.668 121.345 16.5108 127.205C18.9777 132.303 35.3101 140.392 12.6134 151.534C-20.6841 167.866 25.1677 185.565 25.9471 185.858Z" fill="#EAFCFC"/>
<path d="M97.4121 143.867C97.4121 143.867 124.024 110.157 139.843 110.267C155.671 110.377 172.912 132.468 195.425 151.341C220.662 172.488 187.712 173.377 185.805 173.551C183.907 173.726 118.284 171.406 117.193 170.268C116.101 169.131 98.5767 154.505 98.5767 154.505L97.4121 143.867Z" fill="#C5DDF9"/>
<path d="M233.936 144.884H235.064V132.422H233.936V144.884Z" fill="#355389"/>
<path d="M234.508 108.24L238.176 137.897H230.84L234.508 108.24Z" fill="#3C8F7C"/>
<path d="M236.846 127.14L231.609 131.634L231.811 130.001L236.681 125.829L236.846 127.14Z" fill="#50BFA5"/>
<path d="M236.039 120.638L232.839 121.739L232.986 120.519L235.902 119.52L236.039 120.638Z" fill="#50BFA5"/>
<path d="M80.8041 122.931L84.0871 149.415H77.5303L80.8041 122.931Z" fill="#3C8F7C"/>
<path d="M86.5812 126.828L89.0756 146.994H84.0869L86.5812 126.828Z" fill="#3C8F7C"/>
<path d="M91.5705 132.826L94.0648 153.001H89.0762L91.5705 132.826Z" fill="#3C8F7C"/>
<path d="M74.6785 128.846L77.9523 155.33H71.3955L74.6785 128.846Z" fill="#3C8F7C"/>
<path d="M87.0676 137.081C115.496 141.813 158.147 184.317 190.628 184.317C223.11 184.317 230.107 174.148 242.294 176.303C254.472 178.448 270.832 184.317 270.832 184.317L29.4229 185.033C29.4229 185.033 58.6396 132.358 87.0676 137.081Z" fill="#86B1F2"/>
<path d="M189.958 124.701L193.241 151.176H186.685L189.958 124.701Z" fill="#3C8F7C"/>
<path d="M197.763 132.496L200.257 152.661H195.269L197.763 132.496Z" fill="#3C8F7C"/>
<path d="M178.102 143.262L180.596 163.427H175.607L178.102 143.262Z" fill="#3C8F7C"/>
<path d="M183.833 130.607L187.107 157.091H180.55L183.833 130.607Z" fill="#3C8F7C"/>
<path d="M215.911 137.081C187.483 141.813 144.832 184.317 112.35 184.317C79.8598 184.317 72.872 174.148 60.6846 176.303C48.5064 178.448 32.1465 184.317 32.1465 184.317L273.556 185.033C273.556 185.033 244.33 132.358 215.911 137.081Z" fill="#86B1F2"/>
<path d="M206.175 176.767H207.459V162.544H206.175V176.767Z" fill="#355389"/>
<path d="M206.823 134.963L211.004 168.801H202.632L206.823 134.963Z" fill="#3C8F7C"/>
<path d="M209.491 156.531L203.521 161.648L203.751 159.796L209.299 155.027L209.491 156.531Z" fill="#50BFA5"/>
<path d="M208.574 149.113L204.915 150.36L205.089 148.975L208.409 147.838L208.574 149.113Z" fill="#50BFA5"/>
<path d="M220.678 182.83H221.897V161.381H220.678V182.83Z" fill="#355389"/>
<path d="M220.964 123.142L226.998 166.435H214.939L220.964 123.142Z" fill="#3C8F7C"/>
<path d="M226.613 163.684L215.792 160.273L215.957 159.099L226.439 162.409L226.613 163.684Z" fill="#50BFA5"/>
<path d="M224.715 150.011L217.544 147.746L217.7 146.572L224.532 148.727L224.715 150.011Z" fill="#50BFA5"/>
<path d="M29.4229 185.033C29.4229 185.033 60.5929 157.962 100.777 156.302C114.267 155.743 169.527 166.94 216.058 175.734C218.011 176.101 222.239 179.723 224.219 180.099C246.247 184.244 266.779 185.115 273.418 185.381L29.4229 185.033Z" fill="#96D9C9"/>
<path d="M279.957 155.257L280.003 152.927C280.003 151.194 278.682 149.8 277.059 149.8C272.96 149.8 269.631 153.331 269.631 157.687V160.869C269.631 162.263 268.888 163.473 267.806 164.088C266.816 164.638 266.22 165.748 266.22 166.931V168.609C266.22 170.424 267.027 172.121 268.356 173.258C269.136 173.927 269.64 174.945 269.64 176.092V178.467C269.64 181.099 271.649 183.226 274.125 183.226H275.537C278.013 183.226 280.021 181.099 280.021 178.467C279.618 175.147 280.599 173.231 281.736 172.13C283.405 170.516 284.386 168.251 284.386 165.858V165.518C284.386 162.987 283.286 160.621 281.452 159.007C280.617 158.31 279.957 157.155 279.957 155.257Z" fill="#4E9B87"/>
<path d="M284.569 185.986C284.569 185.986 273.125 170.791 265.926 168.462C258.727 166.133 265.513 175.386 265.513 175.386C265.513 175.386 252.739 161.419 248.053 162.675C243.761 163.831 248.053 172.488 248.053 172.488C248.053 172.488 243.211 167.692 237.342 167.692C231.473 167.692 241.881 185.638 241.881 185.638L284.569 185.986Z" fill="#96D9C9"/>
<path d="M248.053 185.647C248.053 185.647 240.231 164.73 230.547 167.151C222.697 169.113 228.282 179.631 227.796 179.155C227.319 178.678 223.11 171.534 216.296 171.534C209.482 171.534 218.387 181.172 218.387 181.172C218.387 181.172 203.879 176.642 202.742 181.401C201.798 185.354 207.071 185.647 207.071 185.647H248.053Z" fill="#3C8F7C"/>
<path d="M69.2586 181.741C69.3045 181.484 69.3228 181.209 69.3228 180.943C69.3228 177.917 66.4892 175.459 62.9861 175.459C59.4831 175.459 56.6494 177.917 56.6494 180.943C56.6494 181.218 56.6678 181.484 56.7136 181.741H69.2586Z" fill="#3C8F7C"/>
<path d="M76.4295 180.393C76.4754 180.026 76.4937 179.65 76.4937 179.265C76.4937 175 73.6601 171.534 70.157 171.534C66.6539 171.534 63.8203 174.991 63.8203 179.265C63.8203 179.65 63.8387 180.026 63.8845 180.393H76.4295Z" fill="#50BFA5"/>
<path d="M74.1101 185.134C74.0642 184.877 74.0459 184.602 74.0459 184.336C74.0459 181.31 76.8795 178.852 80.3826 178.852C83.8857 178.852 86.7193 181.31 86.7193 184.336C86.7193 184.611 86.701 184.877 86.6551 185.134H74.1101Z" fill="#50BFA5"/>
<path d="M63.9771 185.134C63.922 184.767 63.8945 184.391 63.8945 184.006C63.8945 179.741 67.4893 176.275 71.9278 176.275C76.3662 176.275 79.961 179.732 79.961 184.006C79.961 184.391 79.9335 184.767 79.8784 185.134H63.9771Z" fill="#3C8F7C"/>
<path d="M70.1391 176.275C67.9199 176.275 65.9391 177.376 64.6369 179.09C63.9674 178.934 63.2613 178.843 62.5277 178.843C58.5936 178.843 55.4023 181.3 55.4023 184.327C55.4023 184.602 55.4299 184.868 55.4757 185.124H77.1911C77.2369 184.758 77.2644 184.382 77.2644 183.997C77.2644 179.741 74.0732 176.275 70.1391 176.275Z" fill="#50BFA5"/>
<path d="M42.6722 168.856C40.8106 165.94 40.4622 162.428 40.4988 159.988C40.5355 157.338 41.0307 155.357 41.0307 155.339L40.8932 155.293C40.884 155.311 40.398 157.311 40.3521 159.979C40.3154 162.446 40.6639 165.995 42.553 168.948L42.6722 168.856Z" fill="#3C8F7C"/>
<path d="M41.489 154.844C41.4431 155.44 41.1772 155.944 40.792 156.256C40.4619 155.843 40.2785 155.266 40.3243 154.67C40.3702 154.073 40.6361 153.569 41.0213 153.257C41.3514 153.679 41.5348 154.248 41.489 154.844Z" fill="#3C8F7C"/>
<path d="M40.2234 156.229C40.5444 156.751 40.6361 157.338 40.5352 157.852C40.0492 157.732 39.5815 157.393 39.2697 156.88C38.9488 156.357 38.8571 155.77 38.9579 155.256C39.444 155.376 39.9117 155.715 40.2234 156.229Z" fill="#3C8F7C"/>
<path d="M39.5176 157.861C40.0128 158.182 40.3429 158.677 40.4713 159.191C40.0036 159.319 39.4534 159.246 38.9674 158.925C38.4722 158.604 38.1421 158.108 38.0137 157.595C38.4722 157.457 39.0224 157.54 39.5176 157.861Z" fill="#3C8F7C"/>
<path d="M39.7374 160.126C40.1226 160.383 40.3702 160.814 40.4343 161.291C40.0309 161.465 39.5723 161.446 39.1872 161.19C38.802 160.933 38.5544 160.502 38.4902 160.025C38.8846 159.851 39.3431 159.869 39.7374 160.126Z" fill="#3C8F7C"/>
<path d="M41.3427 157.439C41.7829 157.21 42.2689 157.191 42.6907 157.356C42.5807 157.806 42.2872 158.218 41.8471 158.448C41.4069 158.677 40.9209 158.695 40.499 158.53C40.6091 158.081 40.9025 157.668 41.3427 157.439Z" fill="#3C8F7C"/>
<path d="M41.2968 159.007C41.737 158.778 42.223 158.76 42.6448 158.925C42.5348 159.374 42.2413 159.787 41.8012 160.016C41.361 160.245 40.875 160.264 40.4531 160.098C40.5632 159.64 40.8566 159.236 41.2968 159.007Z" fill="#3C8F7C"/>
<path d="M40.0128 162.611C40.2421 162.666 40.4347 162.822 40.5539 163.024C40.3888 163.161 40.1687 163.216 39.9395 163.171C39.7102 163.116 39.5177 162.96 39.3984 162.758C39.5635 162.62 39.7836 162.556 40.0128 162.611Z" fill="#3C8F7C"/>
<path d="M41.9022 170.91C37.638 169.892 34.3825 166.729 32.4017 164.262C30.2559 161.584 29.1004 159.108 29.0912 159.09L28.917 159.181C28.9262 159.209 30.0908 161.694 32.2458 164.39C34.245 166.885 37.5371 170.076 41.8564 171.103L41.9022 170.91Z" fill="#3C8F7C"/>
<path d="M29.146 158.145C29.5953 158.787 29.742 159.557 29.6228 160.254C28.9534 160.172 28.3023 159.787 27.8438 159.136C27.3853 158.485 27.2477 157.723 27.3669 157.026C28.0455 157.118 28.6966 157.494 29.146 158.145Z" fill="#3C8F7C"/>
<path d="M29.0364 160.795C29.7792 160.997 30.3661 161.483 30.687 162.098C30.1093 162.474 29.3573 162.611 28.6145 162.409C27.8717 162.208 27.2848 161.722 26.9639 161.107C27.5416 160.731 28.2936 160.603 29.0364 160.795Z" fill="#3C8F7C"/>
<path d="M29.6693 163.143C30.4213 162.969 31.1641 163.125 31.7235 163.51C31.3659 164.115 30.7514 164.592 29.9995 164.766C29.2475 164.94 28.5047 164.785 27.9453 164.399C28.303 163.794 28.9082 163.317 29.6693 163.143Z" fill="#3C8F7C"/>
<path d="M31.3656 165.271C32.1176 165.096 32.8604 165.252 33.4198 165.637C33.0621 166.243 32.4477 166.72 31.6958 166.894C30.9438 167.068 30.201 166.912 29.6416 166.527C29.9992 165.922 30.6137 165.454 31.3656 165.271Z" fill="#3C8F7C"/>
<path d="M30.8611 161.731C30.8244 161.006 31.0629 160.319 31.4664 159.833C31.9157 160.218 32.2275 160.832 32.2642 161.566C32.3009 162.29 32.0624 162.978 31.6589 163.464C31.2004 163.07 30.8978 162.455 30.8611 161.731Z" fill="#3C8F7C"/>
<path d="M32.6308 163.932C32.5849 163.207 32.8142 162.519 33.2085 162.024C33.667 162.4 33.988 163.015 34.0339 163.739C34.0797 164.464 33.8505 165.151 33.4561 165.647C32.9976 165.271 32.6766 164.656 32.6308 163.932Z" fill="#3C8F7C"/>
<path d="M34.0987 167.38C34.3738 167.196 34.6948 167.16 34.9791 167.251C34.9332 167.554 34.759 167.838 34.4839 168.022C34.2088 168.205 33.8878 168.242 33.6035 168.15C33.6494 167.838 33.8236 167.554 34.0987 167.38Z" fill="#3C8F7C"/>
<path d="M53.2001 176.944L53.3835 176.935C53.1175 172.056 54.9058 167.462 56.4555 164.463C58.1337 161.217 59.9036 159.099 59.9219 159.071L59.7844 158.934C59.766 158.952 57.987 161.089 56.2905 164.353C54.7407 167.37 52.9341 172.011 53.2001 176.944Z" fill="#3C8F7C"/>
<path d="M60.7385 158.787C60.3167 159.493 59.7114 159.933 59.097 160.062C58.9961 159.319 59.1428 158.493 59.5647 157.778C59.9865 157.072 60.5918 156.632 61.2062 156.504C61.3071 157.246 61.1603 158.081 60.7385 158.787Z" fill="#3C8F7C"/>
<path d="M58.4816 159.64C58.5091 160.493 58.2523 161.29 57.8305 161.859C57.3628 161.382 57.051 160.649 57.0235 159.787C56.996 158.934 57.2528 158.136 57.6746 157.567C58.1423 158.044 58.4541 158.778 58.4816 159.64Z" fill="#3C8F7C"/>
<path d="M56.6851 161.162C57.0336 161.896 57.0978 162.73 56.9144 163.464C56.3183 163.308 55.7589 162.84 55.4104 162.107C55.0619 161.373 54.9977 160.538 55.1812 159.805C55.7772 159.961 56.3366 160.438 56.6851 161.162Z" fill="#3C8F7C"/>
<path d="M55.4469 164.913C55.612 165.206 55.667 165.555 55.612 165.866C55.3552 165.821 55.1076 165.646 54.9425 165.353C54.7775 165.059 54.7224 164.711 54.7775 164.399C55.0342 164.445 55.2818 164.619 55.4469 164.913Z" fill="#3C8F7C"/>
<path d="M54.9147 166.261C55.0797 166.554 55.1348 166.903 55.0797 167.215C54.823 167.169 54.5754 166.994 54.4103 166.701C54.2452 166.408 54.1902 166.059 54.2452 165.747C54.502 165.793 54.7496 165.967 54.9147 166.261Z" fill="#3C8F7C"/>
<path d="M58.9681 161.896C59.6008 161.905 60.1511 162.226 60.5087 162.721C60.1052 163.207 59.5275 163.51 58.9039 163.501C58.2711 163.491 57.7209 163.17 57.3633 162.675C57.7576 162.189 58.3353 161.887 58.9681 161.896Z" fill="#3C8F7C"/>
<path d="M57.9407 163.794C58.5735 163.803 59.1237 164.124 59.4814 164.619C59.0779 165.105 58.5001 165.408 57.8766 165.399C57.2438 165.39 56.6936 165.069 56.3359 164.573C56.7394 164.087 57.3172 163.785 57.9407 163.794Z" fill="#3C8F7C"/>
<path d="M56.2534 166.389C56.6661 166.398 57.0237 166.6 57.253 166.921C56.9871 167.233 56.6111 167.435 56.2076 167.425C55.7949 167.416 55.4373 167.214 55.208 166.894C55.4648 166.582 55.8408 166.389 56.2534 166.389Z" fill="#3C8F7C"/>
<path d="M37.2904 184.95C37.2904 184.134 42.1965 185.097 42.6092 183.987C43.0219 182.878 38.4092 182.813 38.4092 181.319C38.4092 179.824 40.7568 180.869 42.1415 180.869C43.5171 180.869 39.4179 180.227 39.4179 179.695C39.4179 179.164 40.8577 179.448 40.8577 178.879C40.8577 178.32 33.3013 177.889 34.1908 176.513C35.0712 175.138 39.1336 176.917 40.2524 176.202C41.3712 175.486 34.3009 174.707 34.1175 173.652C33.9432 172.588 39.3262 174.56 40.0873 173.799C40.8485 173.038 31.5681 170.296 31.9624 168.278C32.3476 166.261 38.9961 170.855 40.6559 170.36C42.3157 169.865 32.2834 162.795 34.6127 160.043C36.9419 157.292 41.3987 169.159 42.921 168.737C44.4433 168.315 41.0136 161.236 42.5725 160.007C44.1223 158.778 48.5791 169.975 48.8634 172.268C49.1477 174.569 49.707 167.325 52.1464 166.472C54.5857 165.628 52.2197 170.956 52.6416 172.588C53.0634 174.212 55.0442 168.416 57.7128 168.847C60.3813 169.269 52.8892 174.569 53.632 176.128C54.3748 177.687 60.1612 170.938 61.9678 172.754C63.7835 174.569 54.9983 179.595 55.4844 180.97C55.9612 182.346 61.2342 179.989 62.7473 181.502C64.2604 183.015 57.0892 183.978 56.1355 183.978C55.1817 183.978 51.5503 185.17 55.0992 184.941C58.6298 184.712 37.2904 185.757 37.2904 184.95Z" fill="#3C8F7C"/>
<path d="M51.2754 185.885C51.2754 185.885 57.1811 186.206 58.9051 185.115C60.6291 184.033 59.2719 183.189 59.2719 183.189C59.2719 183.189 64.7375 183.07 64.7191 181.777C64.7099 180.484 63.3802 180.557 63.3802 180.557C63.3802 180.557 66.1405 178.687 65.627 177.513C64.8383 175.716 60.3449 178.843 60.3449 178.843C60.3449 178.843 61.8213 177.091 60.6291 176.688C57.3553 175.569 51.2754 185.885 51.2754 185.885Z" fill="#50BFA5"/>
<path d="M65.626 177.513C66.1395 178.678 63.3793 180.557 63.3793 180.557C63.3793 180.557 65.3692 180.53 65.0483 181.786C64.7273 183.043 59.7203 183.464 59.7203 183.464C59.7203 183.464 61.4718 183.804 59.7478 184.886C58.0238 185.968 51.2744 185.876 51.2744 185.876L65.626 177.513Z" fill="#96D9C9"/>
<path d="M27.084 134.321C27.0932 134 27.5333 133.752 27.7718 134.037C28.001 134.321 27.9919 134.128 28.2211 134.743C28.8722 136.494 29.8351 138.191 30.9447 139.676C33.0814 142.519 35.1998 143.95 37.6024 145.371C36.612 143.143 35.9517 140.758 35.8692 138.356C35.8417 137.485 35.8509 136.577 36.2268 135.77C36.3277 135.55 36.7312 135.595 36.7771 135.843C36.9788 137.081 36.6854 138.016 37.0797 140.236C38.0334 145.527 41.8207 151.139 45.4797 155.073C44.7828 148.416 44.4435 140.859 45.6906 134.147C45.8924 133.046 46.2225 132.001 46.5251 130.919C46.5985 130.662 46.9561 130.772 46.9103 131.029C46.8461 131.386 46.25 136.008 46.2133 136.32C45.6356 141.428 45.7457 147.095 46.2042 152.258C49.0378 148.416 50.9361 143.931 51.8256 139.245C52.0915 137.861 52.1557 136.43 52.5225 135.073C52.5776 134.889 52.8802 134.862 52.9169 135.073C53.2929 137.109 52.5409 140.713 51.9907 142.675C50.8719 146.646 49.0837 150.204 46.6444 153.377C46.5527 153.496 50.5693 184.556 50.4592 184.95C50.2758 185.611 49.1203 186.078 48.9461 184.904C48.8727 184.428 46.6627 165.546 45.6723 156.797C45.2963 156.586 45.0579 156.22 44.0858 155.128C41.8483 152.606 39.629 149.479 38.1526 146.517C37.2631 146.462 30.8438 143.344 27.6617 136.237C27.57 136.036 27.1574 135.073 27.0932 134.853C27.029 134.66 27.0748 134.504 27.084 134.321Z" fill="#184655"/>
<path d="M47.6901 124.252C47.6168 123.298 47.5801 122.317 47.5801 121.326C47.5801 110.23 52.2845 101.243 58.0985 101.243C63.9033 101.243 68.6168 110.24 68.6168 121.326C68.6168 122.317 68.5802 123.298 68.5068 124.252H47.6901Z" fill="#50BFA5"/>
<path d="M35.7966 119.318C35.7232 117.97 35.6865 116.595 35.6865 115.191C35.6865 99.5468 40.3909 86.8643 46.2049 86.8643C52.0189 86.8643 56.7141 99.5377 56.7141 115.182C56.7141 116.585 56.6774 117.961 56.6041 119.309H35.7966V119.318Z" fill="#96D9C9"/>
<path d="M39.6386 136.668C39.712 135.715 39.7487 134.733 39.7487 133.743C39.7487 122.647 35.0443 113.66 29.2303 113.66C23.4255 113.66 18.7119 122.656 18.7119 133.743C18.7119 134.733 18.7486 135.715 18.822 136.668H39.6386Z" fill="#96D9C9"/>
<path d="M56.4751 136.668C56.5668 135.32 56.6127 133.945 56.6127 132.542C56.6127 116.897 50.6428 104.215 43.279 104.215C35.9152 104.215 29.9453 116.897 29.9453 132.542C29.9453 133.945 29.9912 135.32 30.0829 136.668H56.4751Z" fill="#50BFA5"/>
<path d="M46.2413 104.215C49.9186 104.215 53.2107 108.24 55.3749 114.55C56.4754 113.972 57.6492 113.66 58.8688 113.66C65.3981 113.66 70.6986 122.656 70.6986 133.743C70.6986 134.733 70.6527 135.715 70.5702 136.668H34.5307C34.4482 135.32 34.4023 133.945 34.4023 132.542C34.4115 116.897 39.7028 104.215 46.2413 104.215Z" fill="#96D9C9"/>
<path d="M28.3314 180.457C28.3681 180.099 28.3864 179.723 28.3864 179.347C28.3864 175.156 26.0021 171.754 23.0584 171.754C20.1148 171.754 17.7305 175.156 17.7305 179.347C17.7305 179.723 17.7488 180.09 17.7855 180.457H28.3314Z" fill="#3C8F7C"/>
<path d="M34.3558 178.586C34.3925 178.072 34.4108 177.559 34.4108 177.027C34.4108 171.112 32.0265 166.325 29.0829 166.325C26.1392 166.325 23.7549 171.121 23.7549 177.027C23.7549 177.559 23.7732 178.082 23.8099 178.586H34.3558Z" fill="#50BFA5"/>
<path d="M32.4027 185.143C32.366 184.785 32.3477 184.409 32.3477 184.033C32.3477 179.842 34.7319 176.44 37.6756 176.44C40.6193 176.44 43.0036 179.842 43.0036 184.033C43.0036 184.409 42.9853 184.776 42.9486 185.143H32.4027Z" fill="#50BFA5"/>
<path d="M23.8839 185.143C23.8381 184.629 23.8105 184.116 23.8105 183.584C23.8105 177.669 26.8368 172.882 30.5599 172.882C34.2923 172.882 37.3093 177.678 37.3093 183.584C37.3093 184.116 37.2818 184.638 37.2359 185.143H23.8839Z" fill="#3C8F7C"/>
<path d="M29.0649 172.882C27.2033 172.882 25.5343 174.404 24.4339 176.789C23.8745 176.569 23.2784 176.449 22.664 176.449C19.3535 176.449 16.6758 179.852 16.6758 184.042C16.6758 184.418 16.6941 184.785 16.74 185.152H34.989C35.0348 184.638 35.0532 184.125 35.0532 183.593C35.0532 177.678 32.3754 172.882 29.0649 172.882Z" fill="#50BFA5"/>
<path opacity="0.5" d="M137.477 78.8493C137 76.786 135.157 75.2545 132.956 75.2545C132.553 75.2545 132.158 75.3096 131.782 75.4013C130.691 73.072 128.334 71.4672 125.602 71.4672C124.895 71.4672 124.208 71.5772 123.566 71.779C122.089 69.3397 119.412 67.7073 116.358 67.7073C112.717 67.7073 109.618 70.0183 108.444 73.2462C107.609 72.7785 106.656 72.5218 105.638 72.5218C102.446 72.5218 99.8604 75.1078 99.8604 78.2991C99.8604 78.4917 99.8695 78.6751 99.8879 78.8585H137.477V78.8493Z" fill="white"/>
<path opacity="0.5" d="M188.712 114.88C188.941 113.889 189.831 113.146 190.885 113.146C191.078 113.146 191.27 113.174 191.445 113.22C191.967 112.101 193.105 111.321 194.425 111.321C194.764 111.321 195.094 111.376 195.406 111.468C196.112 110.294 197.405 109.506 198.882 109.506C200.633 109.506 202.128 110.615 202.688 112.174C203.091 111.954 203.55 111.826 204.036 111.826C205.567 111.826 206.814 113.073 206.814 114.604C206.814 114.696 206.805 114.788 206.805 114.87H188.712V114.88Z" fill="white"/>
<path opacity="0.5" d="M156.937 101.968C156.652 100.748 155.561 99.8402 154.259 99.8402C154.02 99.8402 153.791 99.8677 153.562 99.9319C152.92 98.5563 151.517 97.6026 149.903 97.6026C149.481 97.6026 149.078 97.6668 148.702 97.786C147.83 96.3463 146.244 95.3742 144.437 95.3742C142.282 95.3742 140.448 96.7406 139.751 98.6572C139.256 98.3821 138.697 98.2262 138.091 98.2262C136.202 98.2262 134.671 99.7576 134.671 101.647C134.671 101.757 134.68 101.867 134.689 101.977H156.937V101.968Z" fill="white"/>
<path opacity="0.5" d="M200.258 87.6528C199.882 86.0022 198.405 84.7825 196.645 84.7825C196.324 84.7825 196.012 84.8284 195.709 84.9017C194.838 83.0401 192.958 81.7563 190.766 81.7563C190.198 81.7563 189.657 81.8388 189.143 82.0039C187.969 80.0506 185.824 78.7484 183.384 78.7484C180.477 78.7484 178.001 80.5917 177.057 83.1777C176.396 82.8109 175.626 82.6 174.81 82.6C172.261 82.6 170.197 84.6633 170.197 87.2126C170.197 87.3594 170.206 87.5153 170.216 87.662H200.258V87.6528Z" fill="white"/>
<path opacity="0.5" d="M79.0898 107.763C79.2824 106.947 80.016 106.333 80.8872 106.333C81.0523 106.333 81.2082 106.351 81.3549 106.388C81.7859 105.462 82.7305 104.82 83.8217 104.82C84.106 104.82 84.372 104.865 84.6287 104.939C85.2156 103.967 86.2794 103.316 87.4991 103.316C88.948 103.316 90.186 104.233 90.6536 105.526C90.9838 105.342 91.3689 105.232 91.7724 105.232C93.0471 105.232 94.0742 106.259 94.0742 107.534C94.0742 107.607 94.0742 107.681 94.065 107.754H79.0898V107.763Z" fill="white"/>
<path d="M130.022 99.8301V99.1472H127.716V99.8301H130.022Z" fill="#F7CC7F"/>
<path d="M132.573 115.168V99.0677C132.573 98.0055 131.708 97.1406 130.646 97.1406H127.292C126.23 97.1406 125.365 98.0055 125.365 99.0677V115.168C125.365 116.23 126.23 117.095 127.292 117.095H130.646C131.708 117.095 132.573 116.23 132.573 115.168Z" fill="#F47458"/>
<path d="M128.977 117.095H130.904C131.829 117.095 132.573 116.685 132.573 116.185V98.051C132.573 97.5503 132.042 97.1406 131.131 97.1406H128.977V117.095Z" fill="#B75742"/>
<path d="M129.29 109.174V104.53H128.44V109.174H129.29Z" fill="#1A1A1A"/>
<path d="M139.433 115.138V103.423C139.433 102.345 138.552 101.465 137.475 101.465H134.182C133.105 101.465 132.225 102.345 132.225 103.423V115.138C132.225 116.215 133.105 117.095 134.182 117.095H137.475C138.552 117.095 139.433 116.215 139.433 115.138Z" fill="#355389"/>
<path d="M135.836 117.095H137.763C138.689 117.095 139.432 116.777 139.432 116.382V102.194C139.432 101.799 138.689 101.48 137.763 101.48H135.836V117.095Z" fill="#5184CE"/>
<path d="M136.881 103.56V103.028H134.574V103.56H136.881Z" fill="#F7CC7F"/>
<path d="M136.157 110.894V107.252H135.307V110.894H136.157Z" fill="#1A1A1A"/>
<path d="M101.753 117.353H101.404V120.859H101.753V117.353Z" fill="#13375B"/>
<path d="M143.484 117.353H143.135V120.859H143.484V117.353Z" fill="#13375B"/>
<path d="M128.415 109.887H104.621C103.453 109.887 102.512 110.828 102.512 111.996V114.971C102.512 116.139 103.453 117.08 104.621 117.08H128.415C129.583 117.08 130.524 116.139 130.524 114.971V111.996C130.539 110.828 129.583 109.887 128.415 109.887Z" fill="#B75742"/>
<path d="M130.541 113.484V111.556C130.541 110.631 129.964 109.887 129.266 109.887H103.803C103.105 109.887 102.528 110.631 102.528 111.556V113.484H130.541Z" fill="#91342A"/>
<path d="M107.035 112.437H106.079V114.743H107.035V112.437Z" fill="#F7CC7F"/>
<path d="M126.974 112.437H126.018V114.743H126.974V112.437Z" fill="#F7CC7F"/>
<path d="M119.402 113.165H112.877V114.015H119.402V113.165Z" fill="#1A1A1A"/>
<path d="M124.227 102.679H108.824C107.565 102.679 106.563 103.696 106.563 104.94V107.611C106.563 108.871 107.58 109.872 108.824 109.872H124.227C125.486 109.872 126.488 108.855 126.488 107.611V104.956C126.503 103.696 125.486 102.679 124.227 102.679Z" fill="#4E9B87"/>
<path d="M126.503 106.291V104.349C126.503 103.423 126.094 102.679 125.593 102.679H107.459C106.959 102.679 106.549 103.423 106.549 104.349V106.276H126.503V106.291Z" fill="#3C8F7C"/>
<path d="M109.235 105.244H108.552V107.55H109.235V105.244Z" fill="#F7CC7F"/>
<path d="M141.951 117.08L125.456 117.065L125.183 109.72H141.951C143.984 109.72 145.638 111.374 145.638 113.408C145.638 115.441 143.984 117.08 141.951 117.08Z" fill="#FAE0B2"/>
<path d="M128.977 113.408C128.977 115.441 127.459 117.095 125.593 117.095C123.726 117.095 122.209 115.441 122.209 113.408C122.209 111.374 123.726 109.72 125.593 109.72C127.459 109.72 128.977 111.374 128.977 113.408Z" fill="#F7CC7F"/>
<path d="M132.467 117.429C132.315 117.307 132.285 117.095 132.391 116.928C133.514 115.35 133.818 113.665 133.317 111.936C133.044 110.964 132.558 110.236 132.3 109.872C132.194 109.72 132.209 109.523 132.346 109.401C132.497 109.265 132.74 109.28 132.877 109.462C133.18 109.872 133.681 110.676 134 111.723C134.409 113.089 134.531 115.168 132.983 117.368C132.862 117.52 132.634 117.55 132.467 117.429Z" fill="#F47458"/>
<path d="M138.507 117.429C138.355 117.307 138.325 117.095 138.431 116.928C139.554 115.35 139.858 113.665 139.357 111.936C139.084 110.964 138.598 110.236 138.34 109.872C138.234 109.72 138.249 109.523 138.386 109.401C138.537 109.265 138.78 109.28 138.917 109.462C139.22 109.872 139.721 110.676 140.04 111.723C140.449 113.089 140.571 115.168 139.023 117.368C138.887 117.52 138.659 117.55 138.507 117.429Z" fill="#F47458"/>
<path d="M128.384 112.74C128.202 111.587 127.58 110.995 127.079 110.706C126.351 110.282 125.395 110.221 124.56 110.539C123.756 110.843 123.119 111.556 122.876 112.376C122.663 113.104 122.815 113.863 123.301 114.485C124.105 115.532 125.349 115.365 125.956 115.107C126.503 114.864 126.912 114.303 127.003 113.681C127.079 113.165 126.837 112.679 126.396 112.391C125.956 112.102 125.395 112.102 124.97 112.391C124.651 112.603 124.333 112.998 124.636 113.772L124.879 113.681C124.682 113.195 124.758 112.846 125.107 112.618C125.456 112.391 125.896 112.391 126.26 112.618C126.624 112.846 126.806 113.241 126.745 113.65C126.67 114.197 126.321 114.682 125.85 114.879C125.319 115.107 124.211 115.259 123.498 114.348C122.952 113.635 122.982 112.937 123.119 112.482C123.331 111.738 123.923 111.086 124.636 110.813C125.41 110.509 126.275 110.57 126.943 110.949C127.58 111.313 127.99 111.951 128.111 112.8C128.278 113.893 128.081 114.758 127.504 115.38C126.427 116.549 124.151 116.533 123.756 116.518C123.893 116.609 124.044 116.7 124.196 116.776H124.211C124.909 116.776 126.67 116.655 127.686 115.547C128.339 114.864 128.566 113.923 128.384 112.74Z" fill="#F47458"/>
<path d="M123.97 105.244H123.287V107.55H123.97V105.244Z" fill="#F7CC7F"/>
<path d="M118.582 105.972H113.938V106.822H118.582V105.972Z" fill="#1A1A1A"/>
<path d="M112.45 102.379L104.606 117.25L104.835 117.371L112.678 102.499L112.45 102.379Z" fill="#0D0D0D"/>
<path d="M121.256 102.265L121.028 102.385L129.079 117.646L129.307 117.526L121.256 102.265Z" fill="#0D0D0D"/>
<path d="M137.831 101.27L137.592 101.368L144.115 117.374L144.354 117.277L137.831 101.27Z" fill="#0D0D0D"/>
<path d="M130.011 97.0001L129.768 97.0859L136.916 117.348L137.16 117.263L130.011 97.0001Z" fill="#0D0D0D"/>
<path d="M145.077 117.08H99.8721V117.55H145.077V117.08Z" fill="#13375B"/>
<path d="M68.0957 167.672C68.0957 167.672 102.588 173.393 103.013 173.15C103.422 172.907 107.899 153.62 107.899 153.62C107.899 153.62 79.3704 148.491 78.9152 148.491C78.46 148.491 72.2535 153.454 72.1625 153.787C72.0714 154.121 68.0957 167.672 68.0957 167.672Z" fill="#183658"/>
<path d="M173.332 172.574C174.167 172.65 215.943 171.754 215.943 171.754L212.801 162.149C212.801 162.149 207.005 153.393 203.955 153.545C200.889 153.712 182.695 150.753 179.554 152.938C176.413 155.123 173.605 153.378 172.103 158.598C170.616 163.803 169.448 164.395 170.616 167.536C171.754 170.677 173.332 172.574 173.332 172.574Z" fill="#183658"/>
<path d="M85.5165 185.335C93.3692 185.335 99.7351 178.969 99.7351 171.117C99.7351 163.264 93.3692 156.898 85.5165 156.898C77.6637 156.898 71.2979 163.264 71.2979 171.117C71.2979 178.969 77.6637 185.335 85.5165 185.335Z" fill="#1A1A1A"/>
<path d="M85.5159 181.011C90.9802 181.011 95.4098 176.581 95.4098 171.117C95.4098 165.653 90.9802 161.223 85.5159 161.223C80.0517 161.223 75.6221 165.653 75.6221 171.117C75.6221 176.581 80.0517 181.011 85.5159 181.011Z" fill="#8C8C8C"/>
<path d="M85.5165 177.733C89.1705 177.733 92.1327 174.771 92.1327 171.117C92.1327 167.463 89.1705 164.501 85.5165 164.501C81.8625 164.501 78.9004 167.463 78.9004 171.117C78.9004 174.771 81.8625 177.733 85.5165 177.733Z" fill="#D8D9DD"/>
<path d="M195.002 185.335C202.855 185.335 209.22 178.969 209.22 171.117C209.22 163.264 202.855 156.898 195.002 156.898C187.149 156.898 180.783 163.264 180.783 171.117C180.783 178.969 187.149 185.335 195.002 185.335Z" fill="#1A1A1A"/>
<path d="M195.002 181.011C200.466 181.011 204.896 176.581 204.896 171.117C204.896 165.653 200.466 161.223 195.002 161.223C189.538 161.223 185.108 165.653 185.108 171.117C185.108 176.581 189.538 181.011 195.002 181.011Z" fill="#8C8C8C"/>
<path d="M188.386 171.117C188.386 174.774 191.345 177.733 195.002 177.733C198.659 177.733 201.618 174.774 201.618 171.117C201.618 167.46 198.659 164.501 195.002 164.501C191.345 164.486 188.386 167.46 188.386 171.117Z" fill="#D8D9DD"/>
<path d="M227.642 157.566C226.444 149.645 222.559 147.975 211.057 145.669C198.371 143.135 182.27 134.865 182.27 134.865C182.27 134.865 154.804 121.405 148.082 119.857C141.359 118.309 124.804 118.749 110.904 118.871C97.004 118.977 88.8401 122.846 81.7839 128.355C74.7277 133.863 62.4817 138.066 62.4817 138.066L60.2511 138.461C57.9597 138.871 56.3057 140.859 56.3057 143.18V162.847C56.3057 165.077 57.808 167.02 59.9628 167.596L68.0053 169.721C68.6578 169.827 69.2648 169.372 69.3407 168.704C70.2208 160.661 77.1708 154.546 85.4713 154.546C94.2878 154.561 101.526 161.8 101.526 170.631C101.526 171.633 101.435 172.619 101.253 173.56C101.071 174.546 101.83 175.442 102.831 175.442H176.807C178.249 175.442 179.357 174.182 179.175 172.756C179.084 172.073 179.038 171.375 179.038 170.662C179.008 161.951 186.064 154.728 194.774 154.546C203.803 154.364 211.178 161.617 211.178 170.616C211.178 171.208 211.148 171.8 211.087 172.376C210.905 174.015 212.18 175.442 213.818 175.442H224.456C226.383 175.442 227.961 173.879 227.961 171.936V161.633C227.931 160.297 227.855 158.916 227.642 157.566Z" fill="#F7CC7F"/>
<path d="M56.7758 145.517H65.5316C66.2751 145.517 66.7911 146.276 66.5027 146.974L65.5164 149.326C64.5756 151.572 62.3904 153.029 59.9625 153.029H56.7758C56.1536 153.029 55.6377 152.528 55.6377 151.891V146.655C55.6377 146.018 56.1536 145.517 56.7758 145.517Z" fill="#CF283C"/>
<path d="M213.712 149.159C218.537 149.903 224.091 154.47 224.091 154.47C225.427 155.897 224.319 158.218 222.376 158.097L212.968 157.505C211.011 157.384 209.341 156.048 208.81 154.167C207.885 150.995 208.659 148.385 213.712 149.159Z" fill="#EAFCFC"/>
<path d="M56.351 163.59C55.744 163.575 55.3191 164.182 55.5467 164.743C56.1689 166.337 57.5194 167.581 59.2493 168.036L68.263 170.419C68.9914 170.54 69.6743 170.024 69.7653 169.281C69.9323 167.748 70.2964 166.291 70.8276 164.91C71.0097 164.44 70.6606 163.939 70.175 163.924L56.351 163.59Z" fill="#EAB054"/>
<path d="M211.239 167.293C210.556 167.278 210.025 167.869 210.116 168.552C210.207 169.311 210.267 170.07 210.267 170.859C210.267 171.527 210.237 172.164 210.161 172.816C209.964 174.637 211.375 176.231 213.196 176.231H225.002C227.142 176.231 228.887 174.486 228.887 172.346V169.296C228.887 168.431 228.189 167.718 227.324 167.703L211.239 167.293Z" fill="#EAB054"/>
<path opacity="0.5" d="M182.285 139.432C182.133 139.341 166.488 130.768 156.123 125.957C145.85 121.208 134.393 121.708 133.908 121.723C132.588 121.693 105.167 121.101 96.7451 123.726C88.2473 126.367 77.2002 138.431 76.7298 138.947L76.6084 139.083L79.5826 153.044L79.9013 153.029C88.5508 152.543 95.167 154.85 99.0517 159.69C101.98 163.347 102.345 167.217 102.345 167.263L102.375 167.596L133.559 168.401H133.923L134.302 168.416L177.763 169.266V168.886C177.975 154.759 182.451 140.024 182.482 139.872L182.573 139.584L182.285 139.432ZM103.027 166.853C102.876 165.806 102.223 162.498 99.6435 159.25C96.8665 155.76 91.2216 151.724 80.1744 152.27L77.4126 139.311C78.6873 137.93 89.1578 126.883 96.9728 124.44C104.788 121.997 130.205 122.406 133.559 122.467V167.642L103.027 166.853ZM177.004 168.492L134.287 167.657V122.467C136.29 122.406 146.563 122.346 155.82 126.64C165.426 131.086 179.568 138.795 181.678 139.948C181.04 142.057 177.277 155.472 177.004 168.492Z" fill="#FEB546"/>
<path opacity="0.5" d="M55.5459 164.743C56.1681 166.337 57.5186 167.581 59.2485 168.036L68.2622 170.419C68.9906 170.54 69.6735 170.024 69.7645 169.281C69.8252 168.689 69.9163 168.112 70.0377 167.551L55.5459 164.743Z" fill="#FEB546"/>
<path opacity="0.5" d="M210.237 171.709C210.222 172.088 210.192 172.452 210.146 172.832C209.949 174.653 211.36 176.246 213.181 176.246H224.987C227.127 176.246 228.872 174.501 228.872 172.361V171.724H210.237V171.709Z" fill="#FEB546"/>
<path d="M179.721 171.709C179.721 170.905 179.782 170.115 179.888 169.342C180.024 168.416 179.326 167.566 178.386 167.536L101.435 165.654C100.6 165.639 99.9935 166.428 100.221 167.247C100.616 168.659 100.828 170.146 100.828 171.678C100.828 172.695 100.737 173.681 100.555 174.653C100.373 175.654 101.132 176.595 102.148 176.595H177.445C178.917 176.595 180.04 175.29 179.842 173.818C179.767 173.12 179.721 172.407 179.721 171.709Z" fill="#EAB054"/>
<path opacity="0.5" d="M179.721 171.709C179.721 171.693 179.721 171.678 179.721 171.663H100.843C100.843 172.68 100.752 173.666 100.57 174.637C100.388 175.639 101.147 176.58 102.163 176.58H177.46C178.932 176.58 180.055 175.275 179.858 173.803C179.766 173.12 179.721 172.407 179.721 171.709Z" fill="#FEB546"/>
<path d="M85.8199 140.752L128.339 141.147C128.339 141.147 130.949 141.071 131.298 138.628C131.647 136.185 131.617 125.684 131.617 125.684C131.617 125.684 131.313 123.575 129.295 123.544C128.066 123.529 117.793 122.801 107.808 124.015C99.6592 125.001 92.1174 128.734 86.3965 134.455L83.3768 137.475C83.3768 137.475 81.3434 140.707 85.8199 140.752Z" fill="#EAFCFC"/>
<path d="M136.352 127.019V138.021C136.352 139.447 137.444 140.631 138.84 140.677L172.255 142.027C173.029 142.057 173.772 141.708 174.212 141.056C174.819 140.176 174.88 138.719 171.891 136.762C166.686 133.378 153.438 126.033 148.537 125.335C145.411 124.88 141.329 124.683 138.78 124.607C137.459 124.561 136.352 125.654 136.352 127.019Z" fill="#EAFCFC"/>
<path d="M92.118 135.608C92.118 135.608 119.827 132.452 120.419 132.998C121.01 133.545 124.865 142.558 125.563 145.017L92.9222 144.713L90.6309 141.253L92.118 135.608Z" fill="#B75742"/>
<path d="M150.874 138.097C150.874 138.097 153.423 141.117 154.152 144.364L153.347 145.669L151.739 143.969L150.874 138.097Z" fill="#263D60"/>
<path d="M153.59 130.176C153.105 126.989 150.222 124.698 147.217 126.245C146.534 126.594 145.624 127.292 145.153 127.899C143.894 129.523 143.56 131.526 142.255 133.104C142.74 133.469 143.317 133.848 144 134.212L144.819 133.12L144.546 134.47C146.564 135.441 149.417 136.23 153.332 136.215C153.818 134.015 153.848 131.875 153.59 130.176Z" fill="#1A1A1A"/>
<path d="M146.838 137.186C146.838 137.186 143.939 137.004 142.801 138.249C141.648 139.493 145.351 149.372 145.548 150.95C145.76 152.543 143.833 155.699 143.833 155.699C143.833 155.699 151.8 159.432 153.757 158.143C153.757 158.143 153.439 145.411 153.241 144.288C153.029 143.15 151.299 138.537 150.874 138.082C150.449 137.642 146.838 137.186 146.838 137.186Z" fill="#355389"/>
<path d="M147.793 133.317C147.793 133.317 147.778 133.408 147.747 133.544C147.611 134.242 147.125 136.549 146.791 137.186C146.381 137.96 148.187 140.403 149.917 140.1C150.433 140.009 149.477 137.854 149.523 137.626C149.614 137.186 149.735 136.595 149.856 135.972C149.932 135.623 149.993 135.274 150.054 134.94C150.236 134 150.388 133.241 150.388 133.241L147.793 133.317Z" fill="#F7A491"/>
<path d="M92.3301 136.139C92.2998 135.942 92.2239 135.775 92.1177 135.608L88.0053 139.736C88.0053 139.736 84.9097 144.637 91.7231 144.713L93.5896 144.728L92.3301 136.139Z" fill="#B75742"/>
<path opacity="0.3" d="M147.748 133.544C147.778 133.393 147.793 133.317 147.793 133.317L150.388 133.256C150.388 133.256 150.236 134.015 150.054 134.956C149.994 135.29 149.918 135.623 149.857 135.972C149.462 135.912 149.038 135.714 148.613 135.35C148.157 134.956 147.854 134.47 147.672 133.954C147.702 133.802 147.733 133.651 147.748 133.544Z" fill="#F47458"/>
<path d="M149.538 127.429C149.538 127.429 148.324 127.293 147.55 128.279C146.792 129.265 145.957 132.331 147.869 133.985C149.766 135.654 151.648 133.772 151.936 131.769C152.209 129.781 152.315 127.368 149.538 127.429Z" fill="#F7A491"/>
<path d="M152.482 131.754C152.255 132.194 151.875 132.437 151.632 132.3C151.39 132.164 151.374 131.693 151.602 131.253C151.83 130.813 152.209 130.57 152.452 130.707C152.695 130.843 152.71 131.314 152.482 131.754Z" fill="#F7A491"/>
<path d="M149.675 127.11C149.675 127.11 148.036 130.024 146.883 130.145C145.714 130.282 145.562 131.83 145.562 131.83C145.562 131.83 145.987 128.264 147.141 127.581C148.294 126.898 149.675 127.11 149.675 127.11Z" fill="#1A1A1A"/>
<path d="M147.187 130.889C147.278 131.405 147.096 131.875 146.762 131.951C146.428 132.012 146.079 131.648 145.988 131.132C145.897 130.616 146.079 130.145 146.413 130.069C146.747 130.009 147.096 130.373 147.187 130.889Z" fill="#F7A491"/>
<path d="M143.074 151.299C143.074 151.268 144.166 146.61 144.606 145.578C145.046 144.546 146.776 139.751 146.776 139.751L144.546 139.265C144.546 139.265 143.104 143.013 142.452 144.713C141.799 146.412 142.072 149.538 142.042 150.419C142.042 150.434 141.951 151.162 141.951 151.177C141.936 151.268 141.905 151.359 141.905 151.375C141.875 151.42 141.799 151.708 141.799 151.739C141.799 151.769 141.723 151.86 141.708 151.906C141.678 151.951 141.617 152.543 141.602 152.649C141.587 152.74 141.632 152.968 141.632 152.968L141.602 153.362C141.587 153.651 141.89 153.575 141.89 153.575C141.89 153.711 141.936 153.787 142.011 153.818C142.087 153.848 142.178 153.818 142.194 153.833C142.209 153.833 142.209 153.878 142.209 153.878C142.194 153.969 142.3 154.03 142.36 154.045C142.421 154.06 142.543 154.015 142.573 153.969C142.603 153.924 142.634 153.939 142.634 153.939C142.694 154 142.952 153.985 143.013 153.909C143.074 153.833 143.119 153.408 143.15 153.362C143.18 153.317 143.225 153.256 143.241 153.196C143.256 153.135 143.453 152.695 143.468 152.619C143.483 152.543 143.347 152.24 143.332 152.057C143.301 151.875 143.134 151.617 143.089 151.526C143.059 151.511 143.074 151.42 143.074 151.299Z" fill="#F48C7F"/>
<path d="M150.449 132.74L148.567 132.649C148.567 132.649 148.567 133.362 149.402 133.423C150.404 133.514 150.449 132.74 150.449 132.74Z" fill="white"/>
<path d="M140.191 134.182L139.508 138.674C139.508 138.674 141.981 144.015 143.468 143.56C144.713 143.165 143.939 138.446 143.939 138.446C143.939 138.446 143.256 135.912 143.468 134.637C143.666 133.347 140.191 134.182 140.191 134.182Z" fill="#F7A491"/>
<path d="M143.469 134.622C143.667 133.347 140.192 134.182 140.192 134.182L140.131 134.561C140.237 134.804 140.358 135.017 140.51 135.183C141.284 136.018 142.498 136.534 143.56 136.564C143.454 135.866 143.393 135.138 143.469 134.622Z" fill="#F47458"/>
<path d="M139.614 127.824C139.523 127.793 138.825 132.938 140.13 134.349C141.435 135.76 144 136.231 144.91 135.108C145.927 133.878 145.866 128.34 143.833 126.883C141.8 125.441 139.614 127.824 139.614 127.824Z" fill="#F7A491"/>
<path d="M143.074 124.151C141.496 124.47 140.479 125.441 140.1 125.851C139.387 125.942 138.416 126.337 137.414 128.006C136.185 130.054 137.095 132.331 138.522 133.453C139.963 134.561 139.933 135.851 139.933 135.851L140.161 135.183C140.328 134.683 140.404 134.136 140.343 133.62C140.312 133.302 140.237 132.953 140.115 132.68C139.766 131.936 140.859 131.435 141.162 130.813C141.39 130.343 141.405 129.25 141.784 128.461L142.224 127.854C142.224 127.854 143.241 127.065 144.243 127.277C145.229 127.49 145.092 123.727 143.074 124.151Z" fill="#13375B"/>
<path d="M141.087 131.724C141.102 132.346 140.814 132.862 140.45 132.877C140.086 132.877 139.782 132.376 139.782 131.754C139.782 131.132 140.055 130.616 140.42 130.601C140.784 130.586 141.087 131.086 141.087 131.724Z" fill="#F7A491"/>
<path d="M143.227 133.165L145.199 133.059C145.199 133.059 145.199 133.818 144.319 133.879C143.272 133.97 143.227 133.165 143.227 133.165Z" fill="white"/>
<path d="M138.947 138.492C139.129 138.158 139.463 137.93 139.842 137.885C141.496 137.733 146.064 137.733 148.401 141.769C148.765 142.407 149.038 143.089 149.22 143.803L149.706 145.821L137.688 145.426L137.703 144.091C137.612 142.149 138.021 140.206 138.947 138.492Z" fill="#3C8F7C"/>
<path d="M167.475 146.564L169.22 139.478C169.341 139.007 169.053 138.522 168.567 138.4C168.097 138.279 167.611 138.567 167.49 139.053L165.669 146.473L167.475 146.564Z" fill="#1A1A1A"/>
<path d="M162.968 146.352C163.469 146.048 163.864 145.79 164.137 145.623C164.152 145.608 165.411 145.001 165.442 145.001C165.624 144.941 165.776 144.88 165.806 144.88C165.897 144.88 166.443 144.698 166.489 144.667C166.534 144.652 166.762 144.652 166.853 144.652C166.944 144.652 167.961 144.136 168.128 144.045C168.295 143.969 168.598 143.666 168.598 143.666L169.251 143.286C169.736 143.013 169.296 142.604 169.296 142.604C169.524 142.467 169.584 142.315 169.554 142.164C169.509 142.012 169.387 141.89 169.372 141.86C169.372 141.83 169.433 141.784 169.433 141.784C169.584 141.708 169.584 141.481 169.539 141.359C169.493 141.238 169.311 141.101 169.205 141.101C169.114 141.086 169.099 141.041 169.099 141.041C169.114 140.874 168.856 140.494 168.674 140.479C168.492 140.464 167.763 140.828 167.672 140.828C167.581 140.828 167.43 140.798 167.323 140.859C167.217 140.904 166.322 141.025 166.17 141.101C166.018 141.177 165.685 141.678 165.442 141.89C165.199 142.118 164.941 142.664 164.865 142.816C164.835 142.877 164.668 142.968 164.486 143.059C164.455 143.089 158.977 145.062 155.745 146.033L162.968 146.352Z" fill="#F7A491"/>
<path d="M145.897 145.669C145.563 143.636 145.138 141.496 144.683 140.494C143.697 138.324 140.373 137.035 138.75 138.385C137.885 139.098 138.249 142.528 138.992 145.487L145.897 145.669Z" fill="#50BFA5"/>
<path d="M97.626 133.878C97.626 133.878 93.5592 133.772 92.1783 134.698C90.7974 135.608 90.9643 144.713 90.9643 144.713L92.2997 144.971C92.2997 144.971 92.7853 151.238 93.8323 151.557C94.8794 151.891 101.708 149.781 103.134 148.021C104.561 146.261 100.13 133.271 100.13 133.271L97.626 133.878Z" fill="#3C8F7C"/>
<path d="M104.864 126.655C105.213 125.563 105.456 122.239 105.532 121.101C105.471 121.025 105.183 120.54 105.213 119.584C105.228 118.916 104.773 117.808 105.198 117.884C105.623 117.96 105.653 119.113 105.911 118.916C106.169 118.719 106.29 116.291 106.67 116.352C107.064 116.412 106.791 118.704 107.019 118.522C107.246 118.34 107.261 116.23 107.808 116.337C108.354 116.428 107.565 118.81 107.853 118.871C108.142 118.916 108.612 117.414 109.052 117.49C109.492 117.566 108.324 119.523 108.46 119.432C108.597 119.326 109.538 118.522 109.689 118.704C109.872 118.901 107.686 121.208 107.686 121.799C107.868 123.332 108.233 126.094 107.732 127.839C107.125 129.963 105.577 134.698 105.577 134.698L102.284 133.909C102.284 133.939 104.439 127.96 104.864 126.655Z" fill="#F7A491"/>
<path d="M106.261 119.386C106.428 119.462 106.564 119.569 106.67 119.705C106.686 119.735 107.095 120.115 106.989 120.752C106.928 120.358 106.837 119.918 106.261 119.386Z" fill="#F48C7F"/>
<path d="M85.1825 135.654C85.1825 135.654 85.2735 135.123 84.8183 134.303C84.53 133.772 84.4541 132.71 84.1506 132.937C83.8471 133.165 84.3024 134.106 84.0292 134.045C83.7561 133.984 82.6939 132.088 82.4359 132.3C82.1627 132.513 83.2857 134.227 83.0277 134.182C82.7849 134.136 81.9351 132.452 81.5558 132.74C81.1764 133.028 82.7242 134.622 82.5269 134.789C82.3297 134.94 81.3737 133.924 81.0702 134.151C80.7667 134.394 82.4359 135.502 82.2841 135.472C82.1324 135.441 81.1005 135.168 81.055 135.381C80.9943 135.608 83.1643 136.291 83.4071 136.777C83.6498 137.262 87.3676 142.042 88.4299 142.057C89.4921 142.057 94.2569 138.84 94.6059 137.778C94.955 136.731 94.5149 135.623 93.832 135.472C93.134 135.32 88.6878 138.522 88.4754 138.476C88.2629 138.431 85.1825 135.654 85.1825 135.654Z" fill="#F7A491"/>
<path d="M84.0752 134.5C83.969 134.637 83.9083 134.804 83.8627 134.971C83.8627 135.001 83.6958 135.547 84.1056 136.033C83.9842 135.669 83.8324 135.259 84.0752 134.5Z" fill="#F48C7F"/>
<path d="M95.213 142.27C95.213 142.27 99.4923 145.669 99.9627 146.367C100.312 146.883 99.1433 152.74 99.1433 152.74C99.1433 152.74 97.4437 152.786 96.6698 152.194C96.6698 152.194 97.1402 148.142 96.9278 147.991C96.7305 147.839 92.0264 145.745 92.0264 145.745L92.3299 143.347L95.213 142.27Z" fill="#B75742"/>
<path d="M103.438 130.024C103.438 130.024 104.182 130.161 106.716 132.922L103.772 138.916L101.056 133.939L103.438 130.024Z" fill="#9BC1F9"/>
<path d="M98.6581 134.242C98.6581 134.242 100.585 133.818 101.268 133.484C101.951 133.15 108.218 147.93 106.64 148.446C103.332 149.538 94.7582 152.422 94.7582 152.422C94.7582 152.422 94.5154 151.572 94.8189 150.009C95.3652 147.308 95.1831 141.283 95.0617 140.236C95.001 139.614 91.3439 141.405 91.3439 141.405L89.9023 136.731C89.9023 136.731 94.0754 135.305 95.4714 134.865C95.8811 134.728 98.6581 134.242 98.6581 134.242Z" fill="#9BC1F9"/>
<path d="M105.805 143.393C105.016 140.95 99.8414 133.954 99.7959 133.878L100.646 133.302C100.828 133.575 105.062 139.523 105.881 142.103L105.805 143.393Z" fill="#3C8F7C"/>
<path d="M94.5604 147.915L94.0293 147.232C94.0596 147.202 97.6712 144.318 97.7774 141.117C97.8685 137.884 95.2736 134.774 95.2433 134.743L95.911 134.182C96.0324 134.318 98.7638 137.566 98.6576 141.147C98.5362 144.743 94.7273 147.793 94.5604 147.915Z" fill="#3C8F7C"/>
<path d="M97.7319 124.364C97.7319 124.364 99.2645 123.226 100.706 125.077C101.859 126.549 101.708 126.078 102.284 126.822C102.861 127.55 103.726 127.611 103.847 128.84C103.984 130.054 103.438 130.312 103.438 130.312C103.438 130.312 104.06 131.208 103.589 132.239C103.119 133.271 101.799 134.273 100.6 134.258C100.6 134.258 98.9307 135.426 97.0945 135.153C95.2584 134.88 95.8806 134.819 95.1522 134.895C94.4238 134.971 92.3449 134.182 92.5118 132.695C92.5118 132.695 91.1612 131.39 92.1931 130.1C93.2402 128.81 93.8016 127.899 94.3024 126.261C94.8032 124.622 96.8821 124.075 97.7319 124.364Z" fill="#1A1A1A"/>
<path d="M99.7814 132.771C99.7814 132.771 99.9483 134.925 100.176 135.107C100.404 135.29 100.722 135.593 100.479 136.139C100.237 136.686 98.9164 136.504 98.2791 136.261C97.6721 136.033 97.2472 135.563 97.2472 135.563L97.1865 132.118L99.7814 132.771Z" fill="#F7A491"/>
<path d="M99.0222 133.757C98.5973 133.651 97.8386 133.453 97.1861 132.604L97.1709 132.118L99.7809 132.771C99.7809 132.771 99.8265 133.302 99.8872 133.848C99.5381 133.878 99.2195 133.802 99.0222 133.757Z" fill="#F48C7F"/>
<path d="M96.1087 130.236C96.1087 130.236 95.9114 128.977 95.1527 129.311C94.3939 129.645 95.1982 131.496 95.8355 131.359C96.488 131.223 96.1087 130.236 96.1087 130.236Z" fill="#F7A491"/>
<path d="M98.4608 125.335C98.4608 125.335 99.6748 125.183 100.403 126.063C101.132 126.943 102.088 129.584 101.268 131.557C100.434 133.529 99.083 133.211 98.5215 133.089C97.96 132.953 96.8523 132.649 96.1239 130.965C95.3803 129.265 95.35 125.305 98.4608 125.335Z" fill="#F7A491"/>
<path d="M123.286 145.487L125.531 156.17L121.662 155.79L119.811 146.018L123.286 145.487Z" fill="#F7A491"/>
<path d="M123.953 145.79L119.811 146.018C119.811 146.018 119.507 143.15 119.431 141.784C119.34 140.13 119.371 137.975 119.583 138.006C120.16 138.112 120.933 138.37 121.404 138.977C123.073 141.056 123.953 145.79 123.953 145.79Z" fill="#5184CE"/>
<path d="M121.223 141.42C121.329 141.921 123.955 155.897 123.955 155.897C117.748 159.311 112.998 156.397 112.998 156.397C112.998 156.397 113.241 147.004 112.923 145.699C112.71 144.834 111.951 139.159 112.498 138.977C113.211 138.734 114.288 138.37 115.184 138.233C115.958 138.112 118.947 137.915 119.493 138.066C119.493 138.051 120.813 139.311 121.223 141.42Z" fill="#EAFCFC"/>
<path d="M118.992 128.097C118.992 128.097 121.511 128.051 121.298 130.145C121.298 130.145 123.165 130.874 121.92 132.558C121.92 132.558 123.256 134.364 120.934 136.109C120.934 136.109 120.312 138.537 117.702 137.384C117.702 137.384 116.928 137.96 115.851 137.186C114.773 136.412 114.637 135.957 114.637 135.957C114.637 135.957 112.269 135.502 112.588 133.332C112.588 133.332 111.344 132.27 113.225 130.934C113.225 130.934 113.195 127.945 115.729 128.34C115.744 128.324 117.231 126.048 118.992 128.097Z" fill="#13375B"/>
<path d="M115.061 132.998C115 133.529 114.651 133.924 114.287 133.878C113.923 133.833 113.695 133.362 113.756 132.831C113.817 132.3 114.166 131.906 114.53 131.951C114.894 131.997 115.137 132.467 115.061 132.998Z" fill="#F7A491"/>
<path d="M120.964 134.607C120.736 135.092 120.296 135.365 119.963 135.214C119.629 135.062 119.538 134.546 119.765 134.06C119.993 133.575 120.433 133.302 120.767 133.453C121.101 133.605 121.177 134.121 120.964 134.607Z" fill="#F7A491"/>
<path d="M117.929 136.23C117.929 136.261 118.142 137.642 118.248 138.355C118.294 138.628 118.142 138.886 117.884 138.977C117.201 139.235 115.866 139.554 115.031 138.673C114.955 138.598 114.925 138.476 114.925 138.37L115.274 135.168L117.929 136.23Z" fill="#F7A491"/>
<path d="M118.142 137.611C117.413 137.915 115.319 137.657 115.152 136.337L115.274 135.183L117.929 136.23C117.929 136.246 118.081 137.186 118.142 137.611Z" fill="#F48C7F"/>
<path d="M118.612 129.72C118.612 129.72 117.504 129.478 116.457 130.13C115.395 130.783 113.68 133.362 115.122 135.608C116.548 137.854 118.991 136.746 119.841 134.971C120.691 133.195 121.055 130.555 118.612 129.72Z" fill="#F7A491"/>
<path d="M117.929 135.259L116.457 135.168C116.457 135.168 116.457 135.73 117.11 135.79C117.899 135.866 117.929 135.259 117.929 135.259Z" fill="white"/>
<path d="M120.494 130.965C120.494 130.965 119.416 130.388 118.627 130.464C117.823 130.54 115.228 132.437 114.849 132.118C114.469 131.799 114.955 130.13 115.259 129.887C115.562 129.644 116.761 128.916 116.867 128.901C116.973 128.886 118.066 128.901 118.248 128.962C118.43 129.007 119.796 129.66 119.796 129.66L120.494 130.965Z" fill="#13375B"/>
<path d="M104.925 157.156C104.94 157.095 105.001 157.095 105.061 157.08C105.608 157.05 106.154 157.004 106.7 156.913C106.791 156.898 106.882 156.868 106.958 156.837C107.11 156.777 107.262 156.762 107.413 156.807C107.505 156.822 107.58 156.822 107.671 156.822C107.945 156.807 108.734 156.519 109.128 156.443C109.219 156.428 109.295 156.352 109.31 156.261C109.659 154.667 110.403 151.117 110.479 149.948C110.57 148.461 111.389 141.724 111.389 141.724L114.151 142.406C114.151 142.406 113.18 147.384 112.937 149.796C112.755 151.648 111.025 155.639 110.479 156.792C110.221 157.642 109.583 157.687 109.447 157.702C109.356 157.718 109.28 157.763 109.234 157.824C109.143 157.945 109.022 158.051 108.901 158.142C108.81 158.203 108.734 158.294 108.673 158.385C108.567 158.552 108.461 158.734 108.369 158.916C108.309 159.038 108.233 159.083 108.127 159.053C108.02 159.023 107.96 158.947 107.96 158.81C107.96 158.613 108.02 158.431 108.112 158.264C108.203 158.097 108.187 158.006 108.081 157.869C108.02 157.793 107.945 157.718 107.869 157.642C107.778 157.581 107.702 157.535 107.58 157.551C107.383 157.611 107.186 157.657 106.989 157.687L106.822 157.733L106.731 157.748C106.715 157.748 106.427 157.793 106.321 157.793C106.245 157.793 106.108 157.809 106.002 157.809C105.896 157.824 105.684 157.778 105.684 157.778C105.593 157.778 105.501 157.748 105.426 157.687C105.395 157.657 105.365 157.627 105.38 157.581C105.395 157.535 105.426 157.52 105.471 157.505C105.532 157.49 105.881 157.444 105.866 157.429C105.759 157.429 105.441 157.429 105.35 157.429C105.213 157.429 105.092 157.384 105.001 157.293C104.955 157.262 104.91 157.217 104.925 157.156Z" fill="#F7A491"/>
<path d="M109.538 145.775L113.544 147.718C113.544 147.718 114.166 144.774 114.637 142.953C115.046 141.39 113.043 138.598 112.376 138.977C110.904 139.827 109.538 145.775 109.538 145.775Z" fill="#5184CE"/>
<path d="M136.641 140.585L172.301 142.103C172.301 142.103 169.19 152.513 169.114 153.029C169.038 153.545 157.339 159.933 154.395 159.857C151.451 159.781 144.592 157.323 143.12 156.883C141.648 156.443 137.809 153.453 138.037 151.617C138.279 149.781 136.641 140.585 136.641 140.585Z" fill="#F7CC7F"/>
<path d="M146.898 145.866H137.322C137.08 145.866 136.897 145.669 136.897 145.441V144.622C136.897 144.379 137.095 144.197 137.322 144.197H146.898C147.14 144.197 147.322 144.394 147.322 144.622V145.441C147.338 145.669 147.14 145.866 146.898 145.866Z" fill="#EAB054"/>
<path d="M151.041 126.003L155.867 127.991L155.593 126.989L153.788 126.003C153.788 126.003 152.316 125.714 152.164 125.638C152.043 125.563 151.041 126.003 151.041 126.003Z" fill="#F7CC7F"/>
<path opacity="0.6" d="M174.076 138.719L136.352 135.487V138.006C136.352 139.432 137.444 140.616 138.84 140.661L172.255 142.012C173.029 142.042 173.772 141.693 174.212 141.041C174.592 140.494 174.759 139.72 174.076 138.719Z" fill="#C5DDF9"/>
<path opacity="0.7" d="M136.352 135.487V135.138L173.939 138.537L174.076 138.719L136.352 135.487Z" fill="#C5DDF9"/>
<path opacity="0.2" d="M145.047 140.919L148.476 141.071L151.299 136.777L147.96 136.488L145.047 140.919Z" fill="white"/>
<path opacity="0.2" d="M151.147 141.177L153.893 136.989L152.619 136.883L149.842 141.117L151.147 141.177Z" fill="white"/>
<path d="M85.2588 140.722L128.34 141.147L128.719 154.804C128.719 154.804 123.681 162.118 123.074 162.042C122.467 161.967 109.599 159.903 108.446 159.979C107.292 160.055 97.2013 155.108 96.7309 155.199C96.2604 155.305 93.1041 153.605 93.1041 153.605L87.9751 149.994L82.8916 144.759L85.2588 140.722Z" fill="#F7CC7F"/>
<path d="M93.9835 145.016H84.4083C84.1655 145.016 83.9834 144.819 83.9834 144.592V143.772C83.9834 143.529 84.1807 143.347 84.4083 143.347H93.9835C94.2263 143.347 94.4084 143.545 94.4084 143.772V144.592C94.4084 144.834 94.2111 145.016 93.9835 145.016Z" fill="#EAB054"/>
<path d="M100.357 130.813L98.8701 131.101C98.8701 131.101 99.0067 131.663 99.6744 131.557C100.463 131.42 100.357 130.813 100.357 130.813Z" fill="white"/>
<path d="M95.7288 129.387C95.7288 129.387 99.0976 127.839 99.4314 125.426C99.7653 123.013 96.6696 125.32 96.6696 125.32L95.4102 126.519L95.7288 129.387Z" fill="#1A1A1A"/>
<path d="M137.581 140.282C137.581 140.282 138.203 140.707 138.992 140.692C138.992 140.692 137.945 141.01 137.915 140.995C137.884 140.965 137.353 140.54 137.368 140.54C137.368 140.51 137.581 140.282 137.581 140.282Z" fill="#F7CC7F"/>
<path d="M140.828 124.682L145.047 124.956C145.047 124.956 144.364 123.818 144.06 123.818C143.757 123.818 141.845 123.818 141.845 123.818L140.828 124.682Z" fill="#F7CC7F"/>
<path d="M287.513 187.114H13.0444C12.4667 187.114 11.999 186.647 11.999 186.069C11.999 185.491 12.4667 185.024 13.0444 185.024H287.513C288.091 185.024 288.558 185.491 288.558 186.069C288.549 186.647 288.091 187.114 287.513 187.114Z" fill="#183658"/>
</g>
<defs>
<clipPath id="clip0_187_9000">
<rect width="297" height="141.508" fill="white" transform="translate(0.5 45.6068)"/>
</clipPath>
</defs>
</svg>
